# Blender v2.82 (sub 7) OBJ File: ''
# www.blender.org
mtllib cabana.mtl
o Cylinder
v 0.000000 -7.040451 -25.000000
v 0.000000 32.959549 -25.000000
v 4.877258 -7.040451 -24.519630
v 4.877258 32.959549 -24.519630
v 9.567086 -7.040451 -23.096987
v 9.567086 32.959549 -23.096987
v 13.889256 -7.040451 -20.786739
v 13.889256 32.959549 -20.786739
v 17.677670 -7.040451 -17.677670
v 17.677670 32.959549 -17.677670
v 20.786741 -7.040451 -13.889255
v 20.786741 32.959549 -13.889255
v 23.096987 -7.040451 -9.567085
v 23.096987 32.959549 -9.567085
v 24.519630 -7.040451 -4.877259
v 24.519630 32.959549 -4.877259
v 25.000000 -7.040451 -0.000002
v 25.000000 32.959549 -0.000002
v 24.519632 -7.040451 4.877255
v 24.519632 32.959549 4.877255
v 23.096989 -7.040451 9.567081
v 23.096989 32.959549 9.567081
v 20.786741 -7.040451 13.889255
v 20.786741 32.959549 13.889255
v 17.677670 -7.040451 17.677670
v 17.677670 32.959549 17.677670
v 13.889255 -7.040451 20.786741
v 13.889255 32.959549 20.786741
v 9.567081 -7.040451 23.096991
v 9.567081 32.959549 23.096991
v 4.877252 -7.040451 24.519632
v 4.877252 32.959549 24.519632
v -0.000008 -7.040451 25.000000
v -0.000008 32.959549 25.000000
v -4.877268 -7.040451 24.519630
v -4.877268 32.959549 24.519630
v -9.567097 -7.040451 23.096983
v -9.567097 32.959549 23.096983
v -13.889268 -7.040451 20.786732
v -13.889268 32.959549 20.786732
v -17.677681 -7.040451 17.677658
v -17.677681 32.959549 17.677658
v -20.786751 -7.040451 13.889241
v -20.786751 32.959549 13.889241
v -23.096996 -7.040451 9.567067
v -23.096996 32.959549 9.567067
v -24.519636 -7.040451 4.877236
v -24.519636 32.959549 4.877236
v -25.000000 -7.040451 -0.000024
v -25.000000 32.959549 -0.000024
v -24.519627 -7.040451 -4.877284
v -24.519627 32.959549 -4.877284
v -23.096977 -7.040451 -9.567112
v -23.096977 32.959549 -9.567112
v -20.786724 -7.040451 -13.889281
v -20.786724 32.959549 -13.889281
v -17.677647 -7.040451 -17.677692
v -17.677647 32.959549 -17.677692
v -13.889228 -7.040451 -20.786758
v -13.889228 32.959549 -20.786758
v -9.567052 -7.040451 -23.097002
v -9.567052 32.959549 -23.097002
v -4.877221 -7.040451 -24.519638
v -4.877221 32.959549 -24.519638
vt 1.000000 0.500000
vt 1.000000 1.000000
vt 0.968750 1.000000
vt 0.968750 0.500000
vt 0.937500 1.000000
vt 0.937500 0.500000
vt 0.906250 1.000000
vt 0.906250 0.500000
vt 0.875000 1.000000
vt 0.875000 0.500000
vt 0.843750 1.000000
vt 0.843750 0.500000
vt 0.812500 1.000000
vt 0.812500 0.500000
vt 0.781250 1.000000
vt 0.781250 0.500000
vt 0.750000 1.000000
vt 0.750000 0.500000
vt 0.718750 1.000000
vt 0.718750 0.500000
vt 0.687500 1.000000
vt 0.687500 0.500000
vt 0.656250 1.000000
vt 0.656250 0.500000
vt 0.625000 1.000000
vt 0.625000 0.500000
vt 0.593750 1.000000
vt 0.593750 0.500000
vt 0.562500 1.000000
vt 0.562500 0.500000
vt 0.531250 1.000000
vt 0.531250 0.500000
vt 0.500000 1.000000
vt 0.500000 0.500000
vt 0.468750 1.000000
vt 0.468750 0.500000
vt 0.437500 1.000000
vt 0.437500 0.500000
vt 0.406250 1.000000
vt 0.406250 0.500000
vt 0.375000 1.000000
vt 0.375000 0.500000
vt 0.343750 1.000000
vt 0.343750 0.500000
vt 0.312500 1.000000
vt 0.312500 0.500000
vt 0.281250 1.000000
vt 0.281250 0.500000
vt 0.250000 1.000000
vt 0.250000 0.500000
vt 0.218750 1.000000
vt 0.218750 0.500000
vt 0.187500 1.000000
vt 0.187500 0.500000
vt 0.156250 1.000000
vt 0.156250 0.500000
vt 0.125000 1.000000
vt 0.125000 0.500000
vt 0.093750 1.000000
vt 0.093750 0.500000
vt 0.062500 1.000000
vt 0.062500 0.500000
vt 0.296822 0.485388
vt 0.250000 0.490000
vt 0.203179 0.485389
vt 0.158156 0.471731
vt 0.116663 0.449553
vt 0.080295 0.419706
vt 0.050447 0.383337
vt 0.028269 0.341844
vt 0.014612 0.296822
vt 0.010000 0.250000
vt 0.014611 0.203179
vt 0.028269 0.158156
vt 0.050447 0.116663
vt 0.080294 0.080294
vt 0.116663 0.050447
vt 0.158156 0.028269
vt 0.203178 0.014612
vt 0.250000 0.010000
vt 0.296822 0.014612
vt 0.341844 0.028269
vt 0.383337 0.050447
vt 0.419706 0.080294
vt 0.449553 0.116663
vt 0.471731 0.158156
vt 0.485388 0.203178
vt 0.490000 0.250000
vt 0.485388 0.296822
vt 0.471731 0.341844
vt 0.449553 0.383337
vt 0.419706 0.419706
vt 0.383337 0.449553
vt 0.341844 0.471731
vt 0.031250 1.000000
vt 0.031250 0.500000
vt 0.000000 1.000000
vt 0.000000 0.500000
vt 0.750000 0.490000
vt 0.796822 0.485388
vt 0.841844 0.471731
vt 0.883337 0.449553
vt 0.919706 0.419706
vt 0.949553 0.383337
vt 0.971731 0.341844
vt 0.985388 0.296822
vt 0.990000 0.250000
vt 0.985388 0.203178
vt 0.971731 0.158156
vt 0.949553 0.116663
vt 0.919706 0.080294
vt 0.883337 0.050447
vt 0.841844 0.028269
vt 0.796822 0.014612
vt 0.750000 0.010000
vt 0.703178 0.014612
vt 0.658156 0.028269
vt 0.616663 0.050447
vt 0.580294 0.080294
vt 0.550447 0.116663
vt 0.528269 0.158156
vt 0.514611 0.203179
vt 0.510000 0.250000
vt 0.514612 0.296822
vt 0.528269 0.341844
vt 0.550447 0.383337
vt 0.580295 0.419706
vt 0.616663 0.449553
vt 0.658156 0.471731
vt 0.703179 0.485389
vn 0.0980 0.0000 -0.9952
vn 0.2903 0.0000 -0.9569
vn 0.4714 0.0000 -0.8819
vn 0.6344 0.0000 -0.7730
vn 0.7730 0.0000 -0.6344
vn 0.8819 0.0000 -0.4714
vn 0.9569 0.0000 -0.2903
vn 0.9952 0.0000 -0.0980
vn 0.9952 0.0000 0.0980
vn 0.9569 0.0000 0.2903
vn 0.8819 0.0000 0.4714
vn 0.7730 0.0000 0.6344
vn 0.6344 0.0000 0.7730
vn 0.4714 0.0000 0.8819
vn 0.2903 0.0000 0.9569
vn 0.0980 0.0000 0.9952
vn -0.0980 0.0000 0.9952
vn -0.2903 0.0000 0.9569
vn -0.4714 0.0000 0.8819
vn -0.6344 0.0000 0.7730
vn -0.7730 0.0000 0.6344
vn -0.8819 0.0000 0.4714
vn -0.9569 0.0000 0.2903
vn -0.9952 0.0000 0.0980
vn -0.9952 0.0000 -0.0980
vn -0.9569 0.0000 -0.2903
vn -0.8819 0.0000 -0.4714
vn -0.7730 0.0000 -0.6344
vn -0.6344 0.0000 -0.7730
vn -0.4714 0.0000 -0.8819
vn 0.0000 1.0000 0.0000
vn -0.2903 0.0000 -0.9569
vn -0.0980 0.0000 -0.9952
vn 0.0000 -1.0000 0.0000
usemtl Material.007
s off
f 1/1/1 2/2/1 4/3/1 3/4/1
f 3/4/2 4/3/2 6/5/2 5/6/2
f 5/6/3 6/5/3 8/7/3 7/8/3
f 7/8/4 8/7/4 10/9/4 9/10/4
f 9/10/5 10/9/5 12/11/5 11/12/5
f 11/12/6 12/11/6 14/13/6 13/14/6
f 13/14/7 14/13/7 16/15/7 15/16/7
f 15/16/8 16/15/8 18/17/8 17/18/8
f 17/18/9 18/17/9 20/19/9 19/20/9
f 19/20/10 20/19/10 22/21/10 21/22/10
f 21/22/11 22/21/11 24/23/11 23/24/11
f 23/24/12 24/23/12 26/25/12 25/26/12
f 25/26/13 26/25/13 28/27/13 27/28/13
f 27/28/14 28/27/14 30/29/14 29/30/14
f 29/30/15 30/29/15 32/31/15 31/32/15
f 31/32/16 32/31/16 34/33/16 33/34/16
f 33/34/17 34/33/17 36/35/17 35/36/17
f 35/36/18 36/35/18 38/37/18 37/38/18
f 37/38/19 38/37/19 40/39/19 39/40/19
f 39/40/20 40/39/20 42/41/20 41/42/20
f 41/42/21 42/41/21 44/43/21 43/44/21
f 43/44/22 44/43/22 46/45/22 45/46/22
f 45/46/23 46/45/23 48/47/23 47/48/23
f 47/48/24 48/47/24 50/49/24 49/50/24
f 49/50/25 50/49/25 52/51/25 51/52/25
f 51/52/26 52/51/26 54/53/26 53/54/26
f 53/54/27 54/53/27 56/55/27 55/56/27
f 55/56/28 56/55/28 58/57/28 57/58/28
f 57/58/29 58/57/29 60/59/29 59/60/29
f 59/60/30 60/59/30 62/61/30 61/62/30
f 4/63/31 2/64/31 64/65/31 62/66/31 60/67/31 58/68/31 56/69/31 54/70/31 52/71/31 50/72/31 48/73/31 46/74/31 44/75/31 42/76/31 40/77/31 38/78/31 36/79/31 34/80/31 32/81/31 30/82/31 28/83/31 26/84/31 24/85/31 22/86/31 20/87/31 18/88/31 16/89/31 14/90/31 12/91/31 10/92/31 8/93/31 6/94/31
f 61/62/32 62/61/32 64/95/32 63/96/32
f 63/96/33 64/95/33 2/97/33 1/98/33
f 1/99/34 3/100/34 5/101/34 7/102/34 9/103/34 11/104/34 13/105/34 15/106/34 17/107/34 19/108/34 21/109/34 23/110/34 25/111/34 27/112/34 29/113/34 31/114/34 33/115/34 35/116/34 37/117/34 39/118/34 41/119/34 43/120/34 45/121/34 47/122/34 49/123/34 51/124/34 53/125/34 55/126/34 57/127/34 59/128/34 61/129/34 63/130/34
o Cone
v 0.000000 32.430309 -30.000000
v 5.852710 32.430309 -29.423557
v 11.480504 32.430309 -27.716385
v 16.667107 32.430309 -24.944088
v 21.213203 32.430309 -21.213203
v 24.944090 32.430309 -16.667105
v 27.716385 32.430309 -11.480503
v 29.423557 32.430309 -5.852711
v 30.000000 32.430309 -0.000002
v 29.423559 32.430309 5.852706
v 27.716387 32.430309 11.480498
v 24.944090 32.430309 16.667105
v 21.213203 32.430309 21.213203
v 16.667105 32.430309 24.944090
v 11.480498 32.430309 27.716389
v 5.852703 32.430309 29.423559
v -0.000010 32.430309 30.000000
v -5.852722 32.430309 29.423555
v -11.480516 32.430309 27.716379
v -16.667122 32.430309 24.944078
v -21.213217 32.430309 21.213190
v -24.944099 32.430309 16.667089
v -27.716396 32.430309 11.480480
v 0.000000 62.430309 0.000000
v -29.423563 32.430309 5.852684
v -30.000000 32.430309 -0.000029
v -29.423552 32.430309 -5.852741
v -27.716373 32.430309 -11.480534
v -24.944069 32.430309 -16.667137
v -21.213177 32.430309 -21.213230
v -16.667074 32.430309 -24.944111
v -11.480463 32.430309 -27.716404
v -5.852664 32.430309 -29.423567
vt 0.615506 0.947417
vt 1.000000 0.000000
vt 0.809327 1.000000
vt 0.000000 0.983448
vt 0.246737 0.000000
vt 0.260736 1.000000
vt 0.521098 0.980713
vt 0.770798 0.926364
vt 1.000000 0.839149
vt 0.567629 1.000000
vt 0.000000 0.249807
vt 0.718143 0.895790
vt 0.840625 0.769518
vt 0.930410 0.626207
vt 0.984164 0.471512
vt 1.000000 0.311472
vt 0.977516 0.152274
vt 0.917783 0.000000
vt 0.791492 1.000000
vt 0.000000 0.186400
vt 0.896173 0.775532
vt 0.966588 0.527615
vt 1.000000 0.265752
vt 0.995092 0.000000
vt 1.000000 0.828915
vt 0.000000 1.000000
vt 0.956716 0.590813
vt 0.876715 0.367702
vt 0.763055 0.168195
vt 0.620100 0.000000
vt 0.615237 0.000000
vt 1.000000 0.743412
vt 0.443602 0.082675
vt 0.292968 0.193577
vt 0.169080 0.328626
vt 0.076731 0.482818
vt 0.019582 0.650386
vt 0.000000 0.825003
vt 0.018945 1.000000
vt 0.000000 0.266399
vt 0.058053 0.441469
vt 0.152801 0.603090
vt 0.280734 0.744888
vt 0.436983 0.861219
vt 0.016984 0.634445
vt 0.052177 0.725250
vt 0.104045 0.807232
vt 0.170491 0.877465
vt 0.248947 0.933493
vt 0.336481 0.973393
vt 0.429888 0.995813
vt 0.525794 1.000000
vt 0.620755 0.985812
vt 0.711351 0.953723
vt 0.794289 0.904812
vt 0.866495 0.840745
vt 0.925223 0.763741
vt 0.968150 0.676524
vt 0.993472 0.582251
vt 1.000000 0.484420
vt 0.987233 0.386760
vt 0.955417 0.293091
vt 0.905574 0.207168
vt 0.839491 0.132521
vt 0.759678 0.072275
vt 0.669277 0.028996
vt 0.571928 0.004550
vt 0.471604 0.000000
vt 0.372424 0.015543
vt 0.278449 0.050498
vt 0.193489 0.103351
vt 0.120923 0.171833
vt 0.063552 0.253054
vt 0.023493 0.343648
vt 0.002113 0.439946
vt 0.000000 0.538139
vn 0.0695 0.7054 -0.7054
vn 0.2058 0.7054 -0.6783
vn 0.3341 0.7054 -0.6251
vn 0.4497 0.7054 -0.5479
vn 0.5479 0.7054 -0.4497
vn 0.6251 0.7054 -0.3341
vn 0.6783 0.7054 -0.2058
vn 0.7054 0.7054 -0.0695
vn 0.7054 0.7054 0.0695
vn 0.6783 0.7054 0.2058
vn 0.6251 0.7054 0.3341
vn 0.5479 0.7054 0.4497
vn 0.4497 0.7054 0.5479
vn 0.3341 0.7054 0.6251
vn 0.2058 0.7054 0.6783
vn 0.0695 0.7054 0.7054
vn -0.0695 0.7054 0.7054
vn -0.2058 0.7054 0.6783
vn -0.3341 0.7054 0.6251
vn -0.4497 0.7054 0.5479
vn -0.5479 0.7054 0.4497
vn -0.6251 0.7054 0.3341
vn -0.6783 0.7054 0.2058
vn -0.7054 0.7054 0.0695
vn -0.7054 0.7054 -0.0695
vn -0.6783 0.7054 -0.2058
vn -0.6251 0.7054 -0.3341
vn -0.5479 0.7054 -0.4497
vn -0.4497 0.7054 -0.5479
vn -0.3341 0.7054 -0.6251
vn -0.2058 0.7054 -0.6783
vn -0.0695 0.7054 -0.7054
vn 0.0000 -1.0000 0.0000
usemtl Material.016
s off
f 65/131/35 88/132/35 66/133/35
f 66/134/36 88/135/36 67/136/36
f 67/136/37 88/135/37 68/137/37
f 68/137/38 88/135/38 69/138/38
f 69/138/39 88/135/39 70/139/39
f 70/140/40 88/141/40 71/142/40
f 71/142/41 88/141/41 72/143/41
f 72/143/42 88/141/42 73/144/42
f 73/144/43 88/141/43 74/145/43
f 74/145/44 88/141/44 75/146/44
f 75/146/45 88/141/45 76/147/45
f 76/147/46 88/141/46 77/148/46
f 77/149/47 88/150/47 78/151/47
f 78/151/48 88/150/48 79/152/48
f 79/152/49 88/150/49 80/153/49
f 80/153/50 88/150/50 81/154/50
f 81/155/51 88/156/51 82/157/51
f 82/157/52 88/156/52 83/158/52
f 83/158/53 88/156/53 84/159/53
f 84/159/54 88/156/54 85/160/54
f 85/161/55 88/162/55 86/163/55
f 86/163/56 88/162/56 87/164/56
f 87/164/57 88/162/57 89/165/57
f 89/165/58 88/162/58 90/166/58
f 90/166/59 88/162/59 91/167/59
f 91/167/60 88/162/60 92/168/60
f 92/168/61 88/162/61 93/169/61
f 93/170/62 88/132/62 94/171/62
f 94/171/63 88/132/63 95/172/63
f 95/172/64 88/132/64 96/173/64
f 96/173/65 88/132/65 97/174/65
f 97/174/66 88/132/66 65/131/66
f 65/175/67 66/176/67 67/177/67 68/178/67 69/179/67 70/180/67 71/181/67 72/182/67 73/183/67 74/184/67 75/185/67 76/186/67 77/187/67 78/188/67 79/189/67 80/190/67 81/191/67 82/192/67 83/193/67 84/194/67 85/195/67 86/196/67 87/197/67 89/198/67 90/199/67 91/200/67 92/201/67 93/202/67 94/203/67 95/204/67 96/205/67 97/206/67
o Cube_Cube.011
v 23.821011 -7.490533 2.500000
v 23.821011 32.509468 2.500000
v 23.821011 -7.490533 -2.500000
v 23.821011 32.509468 -2.500000
v 27.821011 -7.490533 2.500000
v 27.821011 32.509468 2.500000
v 27.821011 -7.490533 -2.500000
v 27.821011 32.509468 -2.500000
vt 0.000000 0.000000
vt 0.000000 1.000000
vt 1.000000 1.000000
vt 1.000000 0.000000
vt 0.000000 0.000000
vt 0.000000 1.000000
vt 1.000000 1.000000
vt 1.000000 0.000000
vt 0.000000 1.000000
vt 0.000000 0.000000
vt 1.000000 0.000000
vt 1.000000 1.000000
vt 0.000000 1.000000
vt 1.000000 1.000000
vt 0.000000 0.000000
vt 1.000000 0.000000
vn -1.0000 0.0000 0.0000
vn 0.0000 0.0000 -1.0000
vn 1.0000 0.0000 0.0000
vn 0.0000 0.0000 1.0000
vn 0.0000 -1.0000 0.0000
vn 0.0000 1.0000 0.0000
usemtl Material.015
s off
f 98/207/68 99/208/68 101/209/68 100/210/68
f 100/211/69 101/212/69 105/213/69 104/214/69
f 104/214/70 105/213/70 103/215/70 102/216/70
f 102/217/71 103/218/71 99/208/71 98/207/71
f 100/219/72 104/220/72 102/217/72 98/207/72
f 105/213/73 101/212/73 99/221/73 103/222/73
o Cube.001_Cube.012
v -28.468140 -7.490533 3.952435
v -28.468140 32.509468 3.952435
v -28.468140 -7.490533 -1.047565
v -28.468140 32.509468 -1.047565
v -24.468140 -7.490533 3.952435
v -24.468140 32.509468 3.952435
v -24.468140 -7.490533 -1.047565
v -24.468140 32.509468 -1.047565
vt 0.000000 0.000000
vt 0.000000 1.000000
vt 1.000000 1.000000
vt 1.000000 0.000000
vt 0.000000 0.000000
vt 0.000000 1.000000
vt 1.000000 1.000000
vt 1.000000 0.000000
vt 0.000000 1.000000
vt 0.000000 0.000000
vt 1.000000 0.000000
vt 1.000000 1.000000
vt 0.000000 1.000000
vt 1.000000 1.000000
vt 0.000000 0.000000
vt 1.000000 0.000000
vn -1.0000 0.0000 0.0000
vn 0.0000 0.0000 -1.0000
vn 1.0000 0.0000 0.0000
vn 0.0000 0.0000 1.0000
vn 0.0000 -1.0000 0.0000
vn 0.0000 1.0000 0.0000
usemtl Material.008
s off
f 106/223/74 107/224/74 109/225/74 108/226/74
f 108/227/75 109/228/75 113/229/75 112/230/75
f 112/230/76 113/229/76 111/231/76 110/232/76
f 110/233/77 111/234/77 107/224/77 106/223/77
f 108/235/78 112/236/78 110/233/78 106/223/78
f 113/229/79 109/228/79 107/237/79 111/238/79
o Cube.002_Cube.013
v 3.034719 -7.490533 -24.219130
v 3.034719 32.509468 -24.219130
v -1.965281 -7.490533 -24.219130
v -1.965281 32.509468 -24.219130
v 3.034719 -7.490533 -28.219130
v 3.034719 32.509468 -28.219130
v -1.965281 -7.490533 -28.219130
v -1.965281 32.509468 -28.219130
vt 0.000000 0.000000
vt 0.000000 1.000000
vt 1.000000 1.000000
vt 1.000000 0.000000
vt 0.000000 0.000000
vt 0.000000 1.000000
vt 1.000000 1.000000
vt 1.000000 0.000000
vt 0.000000 1.000000
vt 0.000000 0.000000
vt 1.000000 0.000000
vt 1.000000 1.000000
vt 0.000000 1.000000
vt 1.000000 1.000000
vt 0.000000 0.000000
vt 1.000000 0.000000
vn 0.0000 0.0000 1.0000
vn -1.0000 0.0000 0.0000
vn 0.0000 0.0000 -1.0000
vn 1.0000 0.0000 0.0000
vn 0.0000 -1.0000 0.0000
vn 0.0000 1.0000 0.0000
usemtl Material.010
s off
f 114/239/80 115/240/80 117/241/80 116/242/80
f 116/243/81 117/244/81 121/245/81 120/246/81
f 120/246/82 121/245/82 119/247/82 118/248/82
f 118/249/83 119/250/83 115/240/83 114/239/83
f 116/251/84 120/252/84 118/249/84 114/239/84
f 121/245/85 117/244/85 115/253/85 119/254/85
o Cube.003_Cube.014
v 3.034719 -7.490533 28.396181
v 3.034719 32.509468 28.396181
v -1.965281 -7.490533 28.396181
v -1.965281 32.509468 28.396181
v 3.034719 -7.490533 24.396181
v 3.034719 32.509468 24.396181
v -1.965281 -7.490533 24.396181
v -1.965281 32.509468 24.396181
vt 0.000000 0.000000
vt 0.000000 1.000000
vt 1.000000 1.000000
vt 1.000000 0.000000
vt 0.000000 0.000000
vt 0.000000 1.000000
vt 1.000000 1.000000
vt 1.000000 0.000000
vt 0.000000 1.000000
vt 0.000000 0.000000
vt 1.000000 0.000000
vt 1.000000 1.000000
vt 0.000000 1.000000
vt 1.000000 1.000000
vt 0.000000 0.000000
vt 1.000000 0.000000
vn 0.0000 0.0000 1.0000
vn -1.0000 0.0000 0.0000
vn 0.0000 0.0000 -1.0000
vn 1.0000 0.0000 0.0000
vn 0.0000 -1.0000 0.0000
vn 0.0000 1.0000 0.0000
usemtl Material.012
s off
f 122/255/86 123/256/86 125/257/86 124/258/86
f 124/259/87 125/260/87 129/261/87 128/262/87
f 128/262/88 129/261/88 127/263/88 126/264/88
f 126/265/89 127/266/89 123/256/89 122/255/89
f 124/267/90 128/268/90 126/265/90 122/255/90
f 129/261/91 125/260/91 123/269/91 127/270/91
o Cube.004_Cube.015
v -17.800037 -7.212242 -17.871834
v -17.800037 32.787758 -17.871834
v -17.800037 -7.212242 -22.871834
v -17.800037 32.787758 -22.871834
v -13.800037 -7.212242 -17.871834
v -13.800037 32.787758 -17.871834
v -13.800037 -7.212242 -22.871834
v -13.800037 32.787758 -22.871834
vt 0.000000 0.000000
vt 0.000000 1.000000
vt 1.000000 1.000000
vt 1.000000 0.000000
vt 0.000000 0.000000
vt 0.000000 1.000000
vt 1.000000 1.000000
vt 1.000000 0.000000
vt 0.000000 1.000000
vt 0.000000 0.000000
vt 1.000000 0.000000
vt 1.000000 1.000000
vt 0.000000 1.000000
vt 1.000000 1.000000
vt 0.000000 0.000000
vt 1.000000 0.000000
vn -1.0000 0.0000 0.0000
vn 0.0000 0.0000 -1.0000
vn 1.0000 0.0000 0.0000
vn 0.0000 0.0000 1.0000
vn 0.0000 -1.0000 0.0000
vn 0.0000 1.0000 0.0000
usemtl Material.009
s off
f 130/271/92 131/272/92 133/273/92 132/274/92
f 132/275/93 133/276/93 137/277/93 136/278/93
f 136/278/94 137/277/94 135/279/94 134/280/94
f 134/281/95 135/282/95 131/272/95 130/271/95
f 132/283/96 136/284/96 134/281/96 130/271/96
f 137/277/97 133/276/97 131/285/97 135/286/97
o Cube.005_Cube.016
v 13.381235 -7.514083 -17.871834
v 13.381235 32.485916 -17.871834
v 13.381235 -7.514083 -22.871834
v 13.381235 32.485916 -22.871834
v 17.381235 -7.514083 -17.871834
v 17.381235 32.485916 -17.871834
v 17.381235 -7.514083 -22.871834
v 17.381235 32.485916 -22.871834
vt 0.000000 0.000000
vt 0.000000 1.000000
vt 1.000000 1.000000
vt 1.000000 0.000000
vt 0.000000 0.000000
vt 0.000000 1.000000
vt 1.000000 1.000000
vt 1.000000 0.000000
vt 0.000000 1.000000
vt 0.000000 0.000000
vt 1.000000 0.000000
vt 1.000000 1.000000
vt 0.000000 1.000000
vt 1.000000 1.000000
vt 0.000000 0.000000
vt 1.000000 0.000000
vn -1.0000 0.0000 0.0000
vn 0.0000 0.0000 -1.0000
vn 1.0000 0.0000 0.0000
vn 0.0000 0.0000 1.0000
vn 0.0000 -1.0000 0.0000
vn 0.0000 1.0000 0.0000
usemtl Material.011
s off
f 138/287/98 139/288/98 141/289/98 140/290/98
f 140/291/99 141/292/99 145/293/99 144/294/99
f 144/294/100 145/293/100 143/295/100 142/296/100
f 142/297/101 143/298/101 139/288/101 138/287/101
f 140/299/102 144/300/102 142/297/102 138/287/102
f 145/293/103 141/292/103 139/301/103 143/302/103
o Cube.006_Cube.017
v 17.205715 -7.490533 23.485485
v 17.205715 32.509468 23.485485
v 12.205716 -7.490533 23.485485
v 12.205716 32.509468 23.485485
v 17.205715 -7.490533 19.485485
v 17.205715 32.509468 19.485485
v 12.205716 -7.490533 19.485485
v 12.205716 32.509468 19.485485
vt 0.000000 0.000000
vt 0.000000 1.000000
vt 1.000000 1.000000
vt 1.000000 0.000000
vt 0.000000 0.000000
vt 0.000000 1.000000
vt 1.000000 1.000000
vt 1.000000 0.000000
vt 0.000000 1.000000
vt 0.000000 0.000000
vt 1.000000 0.000000
vt 1.000000 1.000000
vt 0.000000 1.000000
vt 1.000000 1.000000
vt 0.000000 0.000000
vt 1.000000 0.000000
vn 0.0000 0.0000 1.0000
vn -1.0000 0.0000 0.0000
vn 0.0000 0.0000 -1.0000
vn 1.0000 0.0000 0.0000
vn 0.0000 -1.0000 0.0000
vn 0.0000 1.0000 0.0000
usemtl Material.013
s off
f 146/303/104 147/304/104 149/305/104 148/306/104
f 148/307/105 149/308/105 153/309/105 152/310/105
f 152/310/106 153/309/106 151/311/106 150/312/106
f 150/313/107 151/314/107 147/304/107 146/303/107
f 148/315/108 152/316/108 150/313/108 146/303/108
f 153/309/109 149/308/109 147/317/109 151/318/109
o Cube.007_Cube.018
v -12.709972 -7.490533 21.209383
v -12.709972 32.509468 21.209383
v -17.709972 -7.490533 21.209383
v -17.709972 32.509468 21.209383
v -12.709972 -7.490533 17.209383
v -12.709972 32.509468 17.209383
v -17.709972 -7.490533 17.209383
v -17.709972 32.509468 17.209383
vt 0.000000 0.000000
vt 0.000000 1.000000
vt 1.000000 1.000000
vt 1.000000 0.000000
vt 0.000000 0.000000
vt 0.000000 1.000000
vt 1.000000 1.000000
vt 1.000000 0.000000
vt 0.000000 1.000000
vt 0.000000 0.000000
vt 1.000000 0.000000
vt 1.000000 1.000000
vt 0.000000 1.000000
vt 1.000000 1.000000
vt 0.000000 0.000000
vt 1.000000 0.000000
vn 0.0000 0.0000 1.0000
vn -1.0000 0.0000 0.0000
vn 0.0000 0.0000 -1.0000
vn 1.0000 0.0000 0.0000
vn 0.0000 -1.0000 0.0000
vn 0.0000 1.0000 0.0000
usemtl Material.014
s off
f 154/319/110 155/320/110 157/321/110 156/322/110
f 156/323/111 157/324/111 161/325/111 160/326/111
f 160/326/112 161/325/112 159/327/112 158/328/112
f 158/329/113 159/330/113 155/320/113 154/319/113
f 156/331/114 160/332/114 158/329/114 154/319/114
f 161/325/115 157/324/115 155/333/115 159/334/115
o Cylinder.002
v -19.610615 -7.149035 -15.963060
v -25.353115 -7.149035 -2.771500
v -24.961269 -7.149035 -4.587883
v -19.610615 14.364093 -15.963060
v -24.346933 14.872147 -7.435627
v -24.346933 -6.826246 -7.435627
v -25.380411 14.822062 -2.644970
v -22.398701 14.717513 -11.932598
v -22.398701 -6.738356 -11.932598
vt 0.603012 0.049920
vt 0.390377 0.045929
vt 0.390377 1.031271
vt 0.603012 1.024249
vt 0.824143 0.031271
vt 0.824143 1.008200
vt 0.199587 0.031271
vt 0.194411 1.028997
vt 0.273888 0.031271
vn -0.9176 0.0000 -0.3975
vn -0.8224 0.0000 -0.5689
vn -0.9775 0.0000 -0.2109
usemtl Material.006
s off
f 170/335/116 167/336/116 166/337/116 169/338/116
f 162/339/117 170/335/117 169/338/117 165/340/117
f 163/341/118 168/342/118 166/337/118 167/336/118 164/343/118
l 164 162
o Cube.008_Cube.019
v -26.948624 14.699420 -2.290256
v -26.948624 17.652344 -2.290256
v -19.943460 14.699420 -16.675238
v -19.943460 17.652344 -16.675238
v -26.049562 14.699420 -1.852434
v -26.049562 17.652344 -1.852434
v -19.044399 14.699420 -16.237415
v -19.044399 17.652344 -16.237415
vt 0.000000 0.000000
vt 0.000000 1.000000
vt 1.000000 1.000000
vt 1.000000 0.000000
vt 0.000000 0.000000
vt 0.000000 1.000000
vt 1.000000 1.000000
vt 1.000000 0.000000
vt 0.000000 1.000000
vt 0.000000 0.000000
vt 1.000000 0.000000
vt 1.000000 1.000000
vt 0.000000 1.000000
vt 1.000000 1.000000
vt 0.000000 0.000000
vt 1.000000 0.000000
vn -0.8991 0.0000 -0.4378
vn 0.4378 0.0000 -0.8991
vn 0.8991 0.0000 0.4378
vn -0.4378 0.0000 0.8991
vn 0.0000 -1.0000 0.0000
vn 0.0000 1.0000 -0.0000
usemtl Material.009
s off
f 171/344/119 172/345/119 174/346/119 173/347/119
f 173/348/120 174/349/120 178/350/120 177/351/120
f 177/351/121 178/350/121 176/352/121 175/353/121
f 175/354/122 176/355/122 172/345/122 171/344/122
f 173/356/123 177/357/123 175/354/123 171/344/123
f 178/350/124 174/349/124 172/358/124 176/359/124
