# Blender v2.82 (sub 7) OBJ File: ''
# www.blender.org
mtllib cabana2.mtl
o Cylinder.004_Cylinder.011
v 3.034718 -0.450081 -24.219130
v -1.965281 -0.450081 -24.219130
v 3.034718 39.549915 -24.219130
v 3.034718 -0.450081 -28.219131
v 3.034718 39.549915 -28.219131
v -1.965281 -0.450081 -28.219131
v -1.965281 39.549915 -28.219131
v -1.965281 39.549915 -24.219130
v 0.000000 0.000000 -25.000000
v 0.000000 40.000000 -25.000000
v 4.877258 0.000000 -24.519630
v 4.877258 40.000000 -24.519630
v 9.567086 0.000000 -23.096987
v 9.567086 40.000000 -23.096987
v 13.889256 0.000000 -20.786739
v 13.889256 40.000000 -20.786739
v 17.677670 0.000000 -17.677670
v 17.677670 40.000000 -17.677670
v 20.786741 0.000000 -13.889255
v 20.786741 40.000000 -13.889255
v 23.096987 0.000000 -9.567085
v 23.096987 40.000000 -9.567085
v 24.519630 0.000000 -4.877259
v 24.519630 40.000000 -4.877259
v 25.000000 0.000000 -0.000002
v 25.000000 40.000000 -0.000002
v 24.519632 0.000000 4.877255
v 24.519632 40.000000 4.877255
v 23.096989 0.000000 9.567081
v 23.096989 40.000000 9.567081
v 20.786741 0.000000 13.889255
v 20.786741 40.000000 13.889255
v 17.677670 0.000000 17.677670
v 17.677670 40.000000 17.677670
v 13.889255 0.000000 20.786741
v 13.889255 40.000000 20.786741
v 9.567081 0.000000 23.096991
v 9.567081 40.000000 23.096991
v 4.877252 0.000000 24.519632
v 4.877252 40.000000 24.519632
v -0.000008 0.000000 25.000000
v -0.000008 40.000000 25.000000
v -4.877268 0.000000 24.519630
v -4.877268 40.000000 24.519630
v -9.567097 0.000000 23.096983
v -9.567097 40.000000 23.096983
v -13.889268 0.000000 20.786732
v -13.889268 40.000000 20.786732
v -17.677681 0.000000 17.677658
v -17.677681 40.000000 17.677658
v -20.786751 0.000000 13.889241
v -20.786751 40.000000 13.889241
v -23.096996 0.000000 9.567067
v -23.096996 40.000000 9.567067
v -24.519636 0.000000 4.877236
v -24.519636 40.000000 4.877236
v -25.000000 0.000000 -0.000024
v -25.000000 40.000000 -0.000024
v -24.519627 0.000000 -4.877284
v -24.519627 40.000000 -4.877284
v -23.096977 0.000000 -9.567112
v -23.096977 40.000000 -9.567112
v -20.786724 0.000000 -13.889281
v -20.786724 40.000000 -13.889281
v -17.677647 0.000000 -17.677692
v -17.677647 40.000000 -17.677692
v -13.889228 0.000000 -20.786758
v -13.889228 40.000000 -20.786758
v -9.567052 0.000000 -23.097002
v -9.567052 40.000000 -23.097002
v -4.877221 0.000000 -24.519638
v -4.877221 40.000000 -24.519638
v 0.000000 39.470757 -29.999998
v 5.852709 39.470757 -29.423555
v 0.000000 69.470749 0.000000
v -5.852664 39.470757 -29.423565
v -11.480462 39.470757 -27.716402
v -24.944067 39.470757 -16.667137
v 16.667107 39.470757 -24.944086
v -29.423561 39.470757 5.852683
v -29.423550 39.470757 -5.852740
v 29.423555 39.470757 -5.852710
v 5.852702 39.470757 29.423559
v 11.480497 39.470757 27.716387
v -0.000010 39.470757 29.999998
v 24.944088 39.470757 16.667105
v -5.852721 39.470757 29.423553
v -11.480515 39.470757 27.716377
v -16.667120 39.470757 24.944077
v -21.213215 39.470757 21.213188
v -24.944098 39.470757 16.667089
v -27.716394 39.470757 11.480479
v 27.716387 39.470757 11.480497
v 21.213202 39.470757 21.213202
v 16.667105 39.470757 24.944088
v 29.423559 39.470757 5.852705
v 29.999998 39.470757 -0.000002
v 27.716383 39.470757 -11.480502
v 24.944088 39.470757 -16.667105
v 21.213202 39.470757 -21.213202
v -29.999998 39.470757 -0.000029
v -27.716372 39.470757 -11.480534
v 11.480503 39.470757 -27.716383
v -21.213175 39.470757 -21.213228
v -16.667072 39.470757 -24.944111
v 23.821011 -0.450081 2.500000
v 23.821011 -0.450081 -2.500000
v 23.821011 39.549911 2.500000
v 27.821011 -0.450081 2.500000
v 27.821011 39.549911 2.500000
v 27.821011 -0.450081 -2.500000
v 27.821011 39.549911 -2.500000
v 23.821011 39.549911 -2.500000
v -28.468142 -0.450081 3.952435
v -28.468142 -0.450081 -1.047565
v -28.468142 39.549911 3.952435
v -24.468140 -0.450081 3.952435
v -24.468140 39.549911 3.952435
v -24.468140 -0.450081 -1.047565
v -24.468140 39.549911 -1.047565
v -28.468142 39.549911 -1.047565
v 3.034718 -0.450081 28.396181
v -1.965281 -0.450081 28.396181
v 3.034718 39.549911 28.396181
v 3.034718 -0.450081 24.396179
v 3.034718 39.549911 24.396179
v -1.965281 -0.450081 24.396179
v -1.965281 39.549911 24.396179
v -1.965281 39.549911 28.396181
v -17.800035 -0.171791 -17.871834
v -17.800035 -0.171791 -22.871834
v -17.800035 39.828201 -17.871834
v -13.800037 -0.171791 -17.871834
v -13.800037 39.828201 -17.871834
v -13.800037 -0.171791 -22.871834
v -13.800037 39.828201 -22.871834
v -17.800035 39.828201 -22.871834
v 13.381235 -0.473633 -17.871834
v 13.381235 -0.473633 -22.871834
v 13.381235 39.526363 -17.871834
v 17.381235 -0.473633 -17.871834
v 17.381235 39.526363 -17.871834
v 17.381235 -0.473633 -22.871834
v 17.381235 39.526363 -22.871834
v 13.381235 39.526363 -22.871834
v 17.205715 -0.450081 23.485485
v 12.205716 -0.450081 23.485485
v 17.205715 39.549911 23.485485
v 17.205715 -0.450081 19.485485
v 12.205716 -0.450081 19.485485
v 17.205715 39.549911 19.485485
v 12.205716 39.549911 19.485485
v 12.205716 39.549911 23.485485
v -12.709972 -0.450081 21.209381
v -17.709970 -0.450081 21.209381
v -12.709972 39.549911 21.209381
v -12.709972 -0.450081 17.209383
v -12.709972 39.549911 17.209383
v -17.709970 -0.450081 17.209383
v -17.709970 39.549911 17.209383
v -17.709970 39.549911 21.209381
v -19.610617 -0.108582 -15.963059
v -19.610617 21.404541 -15.963059
v -22.398701 0.302095 -11.932600
v -24.961271 -0.108582 -4.587883
v -25.353115 -0.108582 -2.771500
v -24.346933 0.214205 -7.435626
v -24.346933 21.912594 -7.435626
v -22.398701 21.757961 -11.932600
v -25.380411 21.862511 -2.644971
v -26.948622 21.739868 -2.290256
v -19.943460 21.739868 -16.675238
v -26.948622 24.692793 -2.290256
v -26.049561 21.739868 -1.852433
v -26.049561 24.692793 -1.852433
v -19.044399 24.692793 -16.237415
v -19.943460 24.692793 -16.675238
v -19.044399 21.739868 -16.237415
vt 1.000000 1.000000
vt 0.968750 0.500000
vt 1.000000 0.500000
vt 0.968750 1.000000
vt 0.937500 0.500000
vt 0.937500 1.000000
vt 0.906250 0.500000
vt 0.906250 1.000000
vt 0.875000 0.500000
vt 0.875000 1.000000
vt 0.843750 0.500000
vt 0.843750 1.000000
vt 0.812500 0.500000
vt 0.812500 1.000000
vt 0.781250 0.500000
vt 0.781250 1.000000
vt 0.750000 0.500000
vt 0.750000 1.000000
vt 0.718750 0.500000
vt 0.718750 1.000000
vt 0.687500 0.500000
vt 0.687500 1.000000
vt 0.656250 0.500000
vt 0.656250 1.000000
vt 0.625000 0.500000
vt 0.625000 1.000000
vt 0.593750 0.500000
vt 0.593750 1.000000
vt 0.562500 0.500000
vt 0.562500 1.000000
vt 0.531250 0.500000
vt 0.531250 1.000000
vt 0.500000 0.500000
vt 0.500000 1.000000
vt 0.468750 0.500000
vt 0.468750 1.000000
vt 0.437500 0.500000
vt 0.437500 1.000000
vt 0.406250 0.500000
vt 0.406250 1.000000
vt 0.375000 0.500000
vt 0.375000 1.000000
vt 0.343750 0.500000
vt 0.343750 1.000000
vt 0.312500 0.500000
vt 0.312500 1.000000
vt 0.281250 0.500000
vt 0.281250 1.000000
vt 0.250000 0.500000
vt 0.250000 1.000000
vt 0.218750 0.500000
vt 0.218750 1.000000
vt 0.187500 0.500000
vt 0.187500 1.000000
vt 0.156250 0.500000
vt 0.156250 1.000000
vt 0.125000 0.500000
vt 0.125000 1.000000
vt 0.093750 0.500000
vt 0.093750 1.000000
vt 0.062500 0.500000
vt 0.028269 0.341844
vt 0.158156 0.028269
vt 0.471731 0.158156
vt 0.062500 1.000000
vt 0.031250 0.500000
vt 0.031250 1.000000
vt 0.000000 0.500000
vt 0.985388 0.296822
vt 0.796822 0.014612
vt 0.514611 0.203179
vt 0.341844 0.471731
vt 0.296822 0.485388
vt 0.250000 0.490000
vt 0.203179 0.485389
vt 0.158156 0.471731
vt 0.116663 0.449553
vt 0.080295 0.419706
vt 0.050447 0.383337
vt 0.014612 0.296822
vt 0.010000 0.250000
vt 0.014611 0.203179
vt 0.028269 0.158156
vt 0.050447 0.116663
vt 0.080294 0.080294
vt 0.116663 0.050447
vt 0.203178 0.014612
vt 0.250000 0.010000
vt 0.296822 0.014612
vt 0.341844 0.028269
vt 0.383337 0.050447
vt 0.419706 0.080294
vt 0.449553 0.116663
vt 0.485388 0.203178
vt 0.490000 0.250000
vt 0.485388 0.296822
vt 0.471731 0.341844
vt 0.449553 0.383337
vt 0.419706 0.419706
vt 0.383337 0.449553
vt 0.000000 1.000000
vt 0.703179 0.485389
vt 0.750000 0.490000
vt 0.796822 0.485388
vt 0.841844 0.471731
vt 0.883337 0.449553
vt 0.919706 0.419706
vt 0.949553 0.383337
vt 0.971731 0.341844
vt 0.990000 0.250000
vt 0.985388 0.203178
vt 0.971731 0.158156
vt 0.949553 0.116663
vt 0.919706 0.080294
vt 0.883337 0.050447
vt 0.841844 0.028269
vt 0.750000 0.010000
vt 0.703178 0.014612
vt 0.658156 0.028269
vt 0.616663 0.050447
vt 0.580294 0.080294
vt 0.550447 0.116663
vt 0.528269 0.158156
vt 0.510000 0.250000
vt 0.514612 0.296822
vt 0.528269 0.341844
vt 0.550447 0.383337
vt 0.580295 0.419706
vt 0.616663 0.449553
vt 0.658156 0.471731
vt 0.000000 0.538139
vt 0.016984 0.634445
vt 0.052177 0.725250
vt 0.615506 0.947417
vt 1.000000 0.000000
vt 0.809327 1.000000
vt 0.436983 0.861219
vt 0.280734 0.744888
vt 0.002113 0.439946
vt 0.120923 0.171833
vt 0.170491 0.877465
vt 0.278449 0.050498
vt 0.525794 1.000000
vt 0.471604 0.000000
vt 1.000000 0.484420
vt 0.993472 0.582251
vt 0.866495 0.840745
vt 0.966588 0.527615
vt 0.000000 0.186400
vt 1.000000 0.265752
vt 0.987233 0.386760
vt 0.955417 0.293091
vt 0.995092 0.000000
vt 0.956716 0.590813
vt 0.000000 1.000000
vt 0.876715 0.367702
vt 1.000000 0.828915
vt 0.905574 0.207168
vt 0.839491 0.132521
vt 0.763055 0.168195
vt 0.620100 0.000000
vt 0.759678 0.072275
vt 0.669277 0.028996
vt 0.443602 0.082675
vt 1.000000 0.743412
vt 0.292968 0.193577
vt 0.615237 0.000000
vt 0.571928 0.004550
vt 0.169080 0.328626
vt 0.794289 0.904812
vt 1.000000 0.311472
vt 0.000000 0.249807
vt 0.977516 0.152274
vt 0.925223 0.763741
vt 0.968150 0.676524
vt 0.917783 0.000000
vt 0.791492 1.000000
vt 0.896173 0.775532
vt 0.711351 0.953723
vt 0.984164 0.471512
vt 0.620755 0.985812
vt 0.930410 0.626207
vt 0.840625 0.769518
vt 0.429888 0.995813
vt 0.718143 0.895790
vt 0.336481 0.973393
vt 0.567629 1.000000
vt 0.248947 0.933493
vt 0.770798 0.926364
vt 0.246737 0.000000
vt 1.000000 0.839149
vt 0.521098 0.980713
vt 0.019582 0.650386
vt 0.000000 0.825003
vt 0.076731 0.482818
vt 0.372424 0.015543
vt 0.193489 0.103351
vt 0.018945 1.000000
vt 0.104045 0.807232
vt 0.260736 1.000000
vt 0.000000 0.983448
vt 0.000000 0.266399
vt 0.058053 0.441469
vt 0.063552 0.253054
vt 0.023493 0.343648
vt 0.152801 0.603090
vt 1.000000 1.000000
vt 0.000000 0.000000
vt 0.000000 1.000000
vt 0.000000 1.000000
vt 1.000000 0.000000
vt 1.000000 1.000000
vt 1.000000 0.000000
vt 0.000000 1.000000
vt 1.000000 0.000000
vt 0.000000 0.000000
vt 1.000000 1.000000
vt 0.000000 0.000000
vt 0.000000 0.000000
vt 1.000000 0.000000
vt 1.000000 1.000000
vt 0.000000 1.000000
vt 1.000000 1.000000
vt 0.000000 0.000000
vt 0.000000 1.000000
vt 0.000000 1.000000
vt 1.000000 0.000000
vt 1.000000 1.000000
vt 1.000000 0.000000
vt 0.000000 1.000000
vt 1.000000 0.000000
vt 0.000000 0.000000
vt 1.000000 1.000000
vt 0.000000 0.000000
vt 0.000000 0.000000
vt 1.000000 0.000000
vt 1.000000 1.000000
vt 0.000000 1.000000
vt 1.000000 1.000000
vt 0.000000 0.000000
vt 0.000000 1.000000
vt 0.000000 1.000000
vt 1.000000 0.000000
vt 1.000000 1.000000
vt 1.000000 0.000000
vt 0.000000 1.000000
vt 1.000000 0.000000
vt 0.000000 0.000000
vt 1.000000 1.000000
vt 0.000000 0.000000
vt 0.000000 0.000000
vt 1.000000 0.000000
vt 1.000000 1.000000
vt 0.000000 1.000000
vt 1.000000 1.000000
vt 0.000000 0.000000
vt 0.000000 1.000000
vt 0.000000 1.000000
vt 1.000000 0.000000
vt 1.000000 1.000000
vt 1.000000 0.000000
vt 0.000000 1.000000
vt 1.000000 0.000000
vt 0.000000 0.000000
vt 1.000000 1.000000
vt 0.000000 0.000000
vt 0.000000 0.000000
vt 1.000000 0.000000
vt 1.000000 1.000000
vt 0.000000 1.000000
vt 1.000000 1.000000
vt 0.000000 0.000000
vt 0.000000 1.000000
vt 0.000000 1.000000
vt 1.000000 0.000000
vt 1.000000 1.000000
vt 1.000000 0.000000
vt 0.000000 1.000000
vt 1.000000 0.000000
vt 0.000000 0.000000
vt 1.000000 1.000000
vt 0.000000 0.000000
vt 0.000000 0.000000
vt 1.000000 0.000000
vt 1.000000 1.000000
vt 0.000000 1.000000
vt 0.000000 1.000000
vt 1.000000 0.000000
vt 0.000000 0.000000
vt 0.000000 1.000000
vt 1.000000 0.000000
vt 1.000000 1.000000
vt 1.000000 1.000000
vt 0.000000 1.000000
vt 0.000000 0.000000
vt 0.000000 0.000000
vt 1.000000 0.000000
vt 0.000000 1.000000
vt 1.000000 0.000000
vt 1.000000 1.000000
vt 0.000000 0.000000
vt 1.000000 1.000000
vt 1.000000 1.000000
vt 0.000000 0.000000
vt 0.000000 1.000000
vt 0.000000 1.000000
vt 1.000000 0.000000
vt 1.000000 1.000000
vt 1.000000 0.000000
vt 0.000000 1.000000
vt 1.000000 0.000000
vt 0.000000 0.000000
vt 1.000000 1.000000
vt 0.000000 0.000000
vt 0.000000 0.000000
vt 1.000000 0.000000
vt 1.000000 1.000000
vt 0.000000 1.000000
vt 0.000000 1.000000
vt 1.000000 1.000000
vt 1.000000 0.000000
vt 0.000000 0.000000
vt 0.000000 1.000000
vt 1.000000 1.000000
vt 1.000000 0.000000
vt 1.000000 1.000000
vt 1.000000 0.000000
vt 1.000000 1.000000
vt 0.000000 1.000000
vt 0.000000 0.000000
vt 0.000000 1.000000
vt 0.000000 0.000000
vt 1.000000 0.000000
vt 0.000000 0.000000
vt 1.000000 1.000000
vt 0.000000 0.000000
vt 0.000000 1.000000
vt 0.000000 1.000000
vt 1.000000 0.000000
vt 1.000000 1.000000
vt 1.000000 0.000000
vt 0.000000 1.000000
vt 1.000000 0.000000
vt 0.000000 0.000000
vt 1.000000 1.000000
vt 0.000000 0.000000
vt 0.000000 0.000000
vt 1.000000 0.000000
vt 1.000000 1.000000
vt 0.000000 1.000000
vt 0.603012 0.049920
vt 0.824143 1.008200
vt 0.824143 0.031271
vt 0.194411 1.028997
vt 0.390377 0.045929
vt 0.273888 0.031271
vt 0.603012 1.024249
vt 0.199587 0.031271
vt 0.390377 1.031271
vn 0.0980 0.0000 -0.9952
vn 0.2903 0.0000 -0.9569
vn 0.4714 0.0000 -0.8819
vn 0.6344 0.0000 -0.7730
vn 0.7730 0.0000 -0.6344
vn 0.8819 0.0000 -0.4714
vn 0.9569 0.0000 -0.2903
vn 0.9952 0.0000 -0.0980
vn 0.9952 0.0000 0.0980
vn 0.9569 0.0000 0.2903
vn 0.8819 0.0000 0.4714
vn 0.7730 0.0000 0.6344
vn 0.6344 0.0000 0.7730
vn 0.4714 0.0000 0.8819
vn 0.2903 0.0000 0.9569
vn 0.0980 0.0000 0.9952
vn -0.0980 0.0000 0.9952
vn -0.2903 0.0000 0.9569
vn -0.4714 0.0000 0.8819
vn -0.6344 0.0000 0.7730
vn -0.7730 0.0000 0.6344
vn -0.8819 0.0000 0.4714
vn -0.9569 0.0000 0.2903
vn -0.9952 0.0000 0.0980
vn -0.9952 0.0000 -0.0980
vn -0.9569 0.0000 -0.2903
vn -0.8819 0.0000 -0.4714
vn -0.7730 0.0000 -0.6344
vn -0.6344 0.0000 -0.7730
vn -0.4714 0.0000 -0.8819
vn 0.0000 1.0000 0.0000
vn -0.2903 0.0000 -0.9569
vn -0.0980 0.0000 -0.9952
vn 0.0000 -1.0000 0.0000
vn 0.0695 0.7054 -0.7054
vn -0.0695 0.7054 -0.7054
vn -0.2058 0.7054 -0.6783
vn 0.2058 0.7054 0.6783
vn 0.0695 0.7054 0.7054
vn -0.2058 0.7054 0.6783
vn -0.0695 0.7054 0.7054
vn -0.4497 0.7054 0.5479
vn -0.3341 0.7054 0.6251
vn -0.6251 0.7054 0.3341
vn -0.5479 0.7054 0.4497
vn -0.6783 0.7054 0.2058
vn 0.6251 0.7054 0.3341
vn 0.5479 0.7054 0.4497
vn 0.4497 0.7054 0.5479
vn 0.3341 0.7054 0.6251
vn 0.6783 0.7054 0.2058
vn 0.7054 0.7054 0.0695
vn 0.7054 0.7054 -0.0695
vn 0.6783 0.7054 -0.2058
vn 0.6251 0.7054 -0.3341
vn 0.5479 0.7054 -0.4497
vn 0.4497 0.7054 -0.5479
vn -0.6783 0.7054 -0.2058
vn -0.7054 0.7054 -0.0695
vn -0.6251 0.7054 -0.3341
vn -0.7054 0.7054 0.0695
vn 0.3341 0.7054 -0.6251
vn 0.2058 0.7054 -0.6783
vn -0.5479 0.7054 -0.4497
vn -0.3341 0.7054 -0.6251
vn -0.4497 0.7054 -0.5479
vn -1.0000 0.0000 0.0000
vn 0.0000 0.0000 1.0000
vn 0.0000 0.0000 -1.0000
vn 1.0000 0.0000 0.0000
vn -0.8991 0.0000 -0.4378
vn -0.4378 0.0000 0.8991
vn 0.8991 0.0000 0.4378
vn 0.4378 0.0000 -0.8991
vn -0.8224 0.0000 -0.5689
vn -0.9775 0.0000 -0.2109
vn -0.9176 0.0000 -0.3975
usemtl Material.007
s off
f 10/1/1 11/2/1 9/3/1
f 12/4/2 13/5/2 11/2/2
f 14/6/3 15/7/3 13/5/3
f 16/8/4 17/9/4 15/7/4
f 18/10/5 19/11/5 17/9/5
f 20/12/6 21/13/6 19/11/6
f 22/14/7 23/15/7 21/13/7
f 24/16/8 25/17/8 23/15/8
f 26/18/9 27/19/9 25/17/9
f 28/20/10 29/21/10 27/19/10
f 30/22/11 31/23/11 29/21/11
f 32/24/12 33/25/12 31/23/12
f 34/26/13 35/27/13 33/25/13
f 36/28/14 37/29/14 35/27/14
f 38/30/15 39/31/15 37/29/15
f 40/32/16 41/33/16 39/31/16
f 42/34/17 43/35/17 41/33/17
f 44/36/18 45/37/18 43/35/18
f 46/38/19 47/39/19 45/37/19
f 48/40/20 49/41/20 47/39/20
f 50/42/21 51/43/21 49/41/21
f 52/44/22 53/45/22 51/43/22
f 54/46/23 55/47/23 53/45/23
f 56/48/24 57/49/24 55/47/24
f 58/50/25 59/51/25 57/49/25
f 60/52/26 61/53/26 59/51/26
f 62/54/27 63/55/27 61/53/27
f 64/56/28 65/57/28 63/55/28
f 66/58/29 67/59/29 65/57/29
f 68/60/30 69/61/30 67/59/30
f 62/62/31 46/63/31 30/64/31
f 70/65/32 71/66/32 69/61/32
f 72/67/33 9/68/33 71/66/33
f 23/69/34 39/70/34 55/71/34
f 10/1/1 12/4/1 11/2/1
f 12/4/2 14/6/2 13/5/2
f 14/6/3 16/8/3 15/7/3
f 16/8/4 18/10/4 17/9/4
f 18/10/5 20/12/5 19/11/5
f 20/12/6 22/14/6 21/13/6
f 22/14/7 24/16/7 23/15/7
f 24/16/8 26/18/8 25/17/8
f 26/18/9 28/20/9 27/19/9
f 28/20/10 30/22/10 29/21/10
f 30/22/11 32/24/11 31/23/11
f 32/24/12 34/26/12 33/25/12
f 34/26/13 36/28/13 35/27/13
f 36/28/14 38/30/14 37/29/14
f 38/30/15 40/32/15 39/31/15
f 40/32/16 42/34/16 41/33/16
f 42/34/17 44/36/17 43/35/17
f 44/36/18 46/38/18 45/37/18
f 46/38/19 48/40/19 47/39/19
f 48/40/20 50/42/20 49/41/20
f 50/42/21 52/44/21 51/43/21
f 52/44/22 54/46/22 53/45/22
f 54/46/23 56/48/23 55/47/23
f 56/48/24 58/50/24 57/49/24
f 58/50/25 60/52/25 59/51/25
f 60/52/26 62/54/26 61/53/26
f 62/54/27 64/56/27 63/55/27
f 64/56/28 66/58/28 65/57/28
f 66/58/29 68/60/29 67/59/29
f 68/60/30 70/65/30 69/61/30
f 14/72/31 12/73/31 10/74/31
f 10/74/31 72/75/31 14/72/31
f 72/75/31 70/76/31 14/72/31
f 70/76/31 68/77/31 66/78/31
f 66/78/31 64/79/31 62/62/31
f 62/62/31 60/80/31 58/81/31
f 58/81/31 56/82/31 62/62/31
f 56/82/31 54/83/31 62/62/31
f 54/83/31 52/84/31 46/63/31
f 52/84/31 50/85/31 46/63/31
f 50/85/31 48/86/31 46/63/31
f 46/63/31 44/87/31 42/88/31
f 42/88/31 40/89/31 38/90/31
f 38/90/31 36/91/31 34/92/31
f 34/92/31 32/93/31 30/64/31
f 30/64/31 28/94/31 26/95/31
f 26/95/31 24/96/31 30/64/31
f 24/96/31 22/97/31 30/64/31
f 22/97/31 20/98/31 18/99/31
f 18/99/31 16/100/31 14/72/31
f 70/76/31 66/78/31 14/72/31
f 66/78/31 62/62/31 14/72/31
f 46/63/31 42/88/31 30/64/31
f 42/88/31 38/90/31 30/64/31
f 38/90/31 34/92/31 30/64/31
f 22/97/31 18/99/31 30/64/31
f 18/99/31 14/72/31 30/64/31
f 62/62/31 54/83/31 46/63/31
f 14/72/31 62/62/31 30/64/31
f 70/65/32 72/67/32 71/66/32
f 72/67/33 10/101/33 9/68/33
f 71/102/34 9/103/34 11/104/34
f 11/104/34 13/105/34 15/106/34
f 15/106/34 17/107/34 19/108/34
f 19/108/34 21/109/34 15/106/34
f 21/109/34 23/69/34 15/106/34
f 23/69/34 25/110/34 27/111/34
f 27/111/34 29/112/34 23/69/34
f 29/112/34 31/113/34 23/69/34
f 31/113/34 33/114/34 39/70/34
f 33/114/34 35/115/34 39/70/34
f 35/115/34 37/116/34 39/70/34
f 39/70/34 41/117/34 43/118/34
f 43/118/34 45/119/34 47/120/34
f 47/120/34 49/121/34 51/122/34
f 51/122/34 53/123/34 55/71/34
f 55/71/34 57/124/34 59/125/34
f 59/125/34 61/126/34 63/127/34
f 63/127/34 65/128/34 71/102/34
f 65/128/34 67/129/34 71/102/34
f 67/129/34 69/130/34 71/102/34
f 71/102/34 11/104/34 15/106/34
f 39/70/34 43/118/34 55/71/34
f 43/118/34 47/120/34 55/71/34
f 47/120/34 51/122/34 55/71/34
f 55/71/34 59/125/34 71/102/34
f 59/125/34 63/127/34 71/102/34
f 71/102/34 15/106/34 23/69/34
f 23/69/34 31/113/34 39/70/34
f 71/102/34 23/69/34 55/71/34
usemtl Material.016
f 76/131/34 73/132/34 74/133/34
f 73/134/35 75/135/35 74/136/35
f 76/137/36 75/135/36 73/134/36
f 77/138/37 75/135/37 76/137/37
f 77/139/34 76/131/34 78/140/34
f 76/131/34 74/133/34 79/141/34
f 81/142/34 78/140/34 76/131/34
f 76/131/34 79/141/34 82/143/34
f 80/144/34 81/142/34 76/131/34
f 83/145/34 80/144/34 76/131/34
f 76/131/34 82/143/34 83/145/34
f 84/146/34 83/145/34 86/147/34
f 84/148/38 75/149/38 83/150/38
f 83/145/34 85/151/34 87/152/34
f 83/150/39 75/149/39 85/153/39
f 82/143/34 86/147/34 83/145/34
f 83/145/34 87/152/34 80/144/34
f 87/154/40 75/155/40 88/156/40
f 85/157/41 75/155/41 87/154/41
f 87/152/34 88/158/34 89/159/34
f 87/152/34 89/159/34 80/144/34
f 89/160/42 75/155/42 90/161/42
f 88/156/43 75/155/43 89/160/43
f 89/159/34 90/162/34 91/163/34
f 89/159/34 91/163/34 80/144/34
f 91/164/44 75/165/44 92/166/44
f 90/167/45 75/165/45 91/164/45
f 91/163/34 92/168/34 80/144/34
f 92/166/46 75/165/46 80/169/46
f 93/170/34 86/147/34 82/143/34
f 93/171/47 75/172/47 86/173/47
f 86/147/34 94/174/34 95/175/34
f 86/173/48 75/172/48 94/176/48
f 95/175/34 84/146/34 86/147/34
f 94/177/49 75/149/49 95/178/49
f 95/178/50 75/149/50 84/148/50
f 96/179/34 93/170/34 82/143/34
f 96/180/51 75/172/51 93/171/51
f 82/143/34 97/181/34 96/179/34
f 97/182/52 75/172/52 96/180/52
f 82/183/53 75/172/53 97/182/53
f 98/184/34 82/143/34 79/141/34
f 98/185/54 75/172/54 82/183/54
f 99/186/34 98/184/34 79/141/34
f 99/187/55 75/172/55 98/185/55
f 79/141/34 100/188/34 99/186/34
f 100/189/56 75/190/56 99/191/56
f 79/192/57 75/190/57 100/189/57
f 81/193/58 75/165/58 102/194/58
f 101/195/59 75/165/59 81/193/59
f 80/144/34 101/196/34 81/142/34
f 81/142/34 102/197/34 78/140/34
f 102/194/60 75/165/60 78/198/60
f 80/169/61 75/165/61 101/195/61
f 74/133/34 103/199/34 79/141/34
f 103/200/62 75/190/62 79/192/62
f 74/201/63 75/190/63 103/200/63
f 78/202/64 75/135/64 104/203/64
f 78/140/34 104/204/34 105/205/34
f 105/205/34 77/139/34 78/140/34
f 105/206/65 75/135/65 77/138/65
f 104/203/66 75/135/66 105/206/66
usemtl Material.015
f 111/207/34 106/208/34 107/209/34
f 108/210/67 107/211/67 106/208/67
f 110/212/68 108/210/68 106/208/68
f 111/207/34 109/213/34 106/208/34
f 110/212/68 106/208/68 109/213/68
f 113/214/69 111/215/69 107/216/69
f 113/214/69 112/217/69 111/215/69
f 112/217/70 109/218/70 111/215/70
f 113/214/31 108/219/31 110/220/31
f 108/210/67 113/221/67 107/211/67
f 113/214/31 110/220/31 112/217/31
f 112/217/70 110/222/70 109/218/70
usemtl Material.008
f 119/223/34 114/224/34 115/225/34
f 116/226/67 115/227/67 114/224/67
f 118/228/68 116/226/68 114/224/68
f 119/223/34 117/229/34 114/224/34
f 118/228/68 114/224/68 117/229/68
f 121/230/69 119/231/69 115/232/69
f 121/230/69 120/233/69 119/231/69
f 120/233/70 117/234/70 119/231/70
f 121/230/31 116/235/31 118/236/31
f 116/226/67 121/237/67 115/227/67
f 121/230/31 118/236/31 120/233/31
f 120/233/70 118/238/70 117/234/70
usemtl Material.010
f 6/239/34 1/240/34 2/241/34
f 3/242/68 2/243/68 1/240/68
f 5/244/70 3/242/70 1/240/70
f 6/239/34 4/245/34 1/240/34
f 5/244/70 1/240/70 4/245/70
f 8/246/67 6/247/67 2/248/67
f 8/246/67 7/249/67 6/247/67
f 7/249/69 4/250/69 6/247/69
f 8/246/31 3/251/31 5/252/31
f 3/242/68 8/253/68 2/243/68
f 8/246/31 5/252/31 7/249/31
f 7/249/69 5/254/69 4/250/69
usemtl Material.012
f 127/255/34 122/256/34 123/257/34
f 124/258/68 123/259/68 122/256/68
f 126/260/70 124/258/70 122/256/70
f 127/255/34 125/261/34 122/256/34
f 126/260/70 122/256/70 125/261/70
f 129/262/67 127/263/67 123/264/67
f 129/262/67 128/265/67 127/263/67
f 128/265/69 125/266/69 127/263/69
f 129/262/31 124/267/31 126/268/31
f 124/258/68 129/269/68 123/259/68
f 129/262/31 126/268/31 128/265/31
f 128/265/69 126/270/69 125/266/69
usemtl Material.009
f 135/271/34 130/272/34 131/273/34
f 132/274/67 131/275/67 130/272/67
f 134/276/68 132/274/68 130/272/68
f 135/271/34 133/277/34 130/272/34
f 134/276/68 130/272/68 133/277/68
f 137/278/69 135/279/69 131/280/69
f 137/278/69 136/281/69 135/279/69
f 136/281/70 133/282/70 135/279/70
f 137/278/31 132/283/31 134/284/31
f 132/274/67 137/285/67 131/275/67
f 137/278/31 134/284/31 136/281/31
f 136/281/70 134/286/70 133/282/70
f 172/287/34 174/288/34 171/289/34
f 173/290/71 172/291/71 171/289/71
f 175/292/72 173/290/72 171/289/72
f 175/292/72 171/289/72 174/288/72
f 176/293/73 175/294/73 174/295/73
f 176/293/31 173/296/31 175/297/31
f 176/293/31 177/298/31 173/296/31
f 177/298/74 176/293/74 178/299/74
f 176/293/73 174/295/73 178/299/73
f 172/287/34 178/300/34 174/288/34
f 177/298/74 178/299/74 172/301/74
f 173/290/71 177/302/71 172/291/71
usemtl Material.011
f 143/303/34 138/304/34 139/305/34
f 140/306/67 139/307/67 138/304/67
f 142/308/68 140/306/68 138/304/68
f 143/303/34 141/309/34 138/304/34
f 142/308/68 138/304/68 141/309/68
f 145/310/69 143/311/69 139/312/69
f 145/310/69 144/313/69 143/311/69
f 144/313/70 141/314/70 143/311/70
f 145/310/31 140/315/31 142/316/31
f 140/306/67 145/317/67 139/307/67
f 145/310/31 142/316/31 144/313/31
f 144/313/70 142/318/70 141/314/70
usemtl Material.013
f 147/319/34 150/320/34 149/321/34 146/322/34
f 146/322/68 148/323/68 153/324/68 147/325/68
f 149/321/70 151/326/70 148/323/70 146/322/70
f 150/327/69 152/328/69 151/329/69 149/330/69
f 152/328/31 153/331/31 148/332/31 151/333/31
f 147/334/67 153/331/67 152/328/67 150/327/67
usemtl Material.014
f 159/335/34 154/336/34 155/337/34
f 156/338/68 155/339/68 154/336/68
f 158/340/70 156/338/70 154/336/70
f 159/335/34 157/341/34 154/336/34
f 158/340/70 154/336/70 157/341/70
f 161/342/67 159/343/67 155/344/67
f 161/342/67 160/345/67 159/343/67
f 160/345/69 157/346/69 159/343/69
f 161/342/31 156/347/31 158/348/31
f 156/338/68 161/349/68 155/339/68
f 161/342/31 158/348/31 160/345/31
f 160/345/69 158/350/69 157/346/69
usemtl Material.006
f 164/351/75 163/352/75 162/353/75
f 170/354/76 167/355/76 165/356/76
f 167/355/77 169/357/77 164/351/77
f 164/351/75 169/357/75 163/352/75
f 165/356/76 166/358/76 170/354/76
f 170/354/76 168/359/76 167/355/76
f 167/355/77 168/359/77 169/357/77
l 165 162
